<svg height="512pt" viewBox="0 0 512 512" width="512pt" xmlns="http://www.w3.org/2000/svg"><path d="m346 502c0 5.523438-4.476562 10-10 10s-10-4.476562-10-10 4.476562-10 10-10 10 4.476562 10 10zm0 0"/><path d="m399 100c-4.574219 0-10.523438.292969-16.277344.921875-13.484375-58.882813-66.003906-100.921875-126.722656-100.921875-60.648438 0-113.222656 41.976562-126.722656 100.921875-5.753906-.628906-11.703125-.921875-16.277344-.921875-60.4375 0-113 48.855469-113 110 0 57.847656 47.496094 105.089844 106 109.640625v182.359375c0 5.523438 4.476562 10 10 10h180c5.523438 0 10-4.476562 10-10s-4.476562-10-10-10h-170v-40h260v40h-10c-5.523438 0-10 4.476562-10 10s4.476562 10 10 10h20c5.523438 0 10-4.476562 10-10v-182.359375c58.421875-4.550781 106-51.707031 106-109.640625 0-61.15625-52.574219-110-113-110zm-2.914062 199.988281c-18.898438-.164062-37.371094-5.632812-54.90625-16.253906-4.722657-2.855469-10.871094-1.351563-13.734376 3.375-2.859374 4.722656-1.351562 10.871094 3.375 13.734375 17.609376 10.667969 36.132813 16.902344 55.179688 18.636719v112.519531h-60v-82c0-5.523438-4.476562-10-10-10s-10 4.476562-10 10v82h-40v-82c0-5.523438-4.476562-10-10-10s-10 4.476562-10 10v82h-40v-82c0-5.523438-4.476562-10-10-10s-10 4.476562-10 10v82h-60v-112.519531c19.050781-1.734375 37.570312-7.96875 55.183594-18.636719 4.722656-2.859375 6.230468-9.011719 3.371094-13.734375-2.863282-4.722656-9.011719-6.230469-13.734376-3.371094-17.535156 10.621094-36.007812 16.089844-54.910156 16.253907-51.609375.417968-95.910156-39.792969-95.910156-89.992188 0-48.785156 42.589844-90 93-90 4.246094 0 8.996094.269531 13.328125.71875-.71875 10.21875-.25 20.566406 1.421875 30.878906.882812 5.453125 6.019531 9.15625 11.46875 8.273438 5.453125-.882813 9.15625-6.019532 8.273438-11.46875-1.882813-11.628906-1.984376-23.292969-.300782-34.667969 7.914063-53.4375 54.691406-93.734375 108.808594-93.734375s100.894531 40.296875 108.808594 93.734375c1.683594 11.375 1.582031 23.039063-.300782 34.667969-.882812 5.449218 2.820313 10.585937 8.273438 11.46875.542969.089844 1.078125.132812 1.609375.132812 4.820313-.003906 9.066406-3.496094 9.859375-8.40625 1.671875-10.308594 2.140625-20.65625 1.421875-30.878906 4.332031-.449219 9.085937-.71875 13.328125-.71875 50.410156 0 93 41.214844 93 90 0 50.824219-45.113281 90.535156-95.914062 89.988281zm0 0"/></svg>